<svg data-v-423bf9ae="" xmlns="http://www.w3.org/2000/svg" viewBox="0 0 701.1999947684152 197" class="iconAboveSlogan"><!----><!----><!----><g data-v-423bf9ae="" id="f9f2e0bc-826d-44f4-a8da-381e1cfdbed2" fill="black" transform="matrix(5.714285714285714,0,0,5.714285714285714,-4.6285717231886565,79.11428621837071)"><path d="M7.82 11.53L7.82 11.53L7.82 11.53Q7.82 11.98 7.79 12.34L7.79 12.34L7.79 12.34Q7.77 12.69 7.69 12.99L7.69 12.99L7.69 12.99Q7.62 13.29 7.54 13.51L7.54 13.51L7.54 13.51Q7.46 13.74 7.31 13.91L7.31 13.91L7.31 13.91Q7.16 14.09 7.01 14.21L7.01 14.21L7.01 14.21Q6.86 14.33 6.63 14.42L6.63 14.42L6.63 14.42Q6.39 14.51 6.17 14.56L6.17 14.56L6.17 14.56Q5.95 14.61 5.63 14.64L5.63 14.64L5.63 14.64Q5.30 14.66 5.00 14.67L5.00 14.67L5.00 14.67Q4.70 14.68 4.27 14.68L4.27 14.68L4.27 14.68Q3.46 14.68 2.91 14.64L2.91 14.64L2.91 14.64Q2.36 14.59 1.97 14.43L1.97 14.43L1.97 14.43Q1.59 14.27 1.37 14.11L1.37 14.11L1.37 14.11Q1.16 13.94 1.04 13.57L1.04 13.57L1.04 13.57Q0.92 13.21 0.88 12.87L0.88 12.87L0.88 12.87Q0.84 12.54 0.81 11.92L0.81 11.92L2.08 11.72L2.08 11.72Q2.10 11.87 2.12 12.14L2.12 12.14L2.12 12.14Q2.16 12.56 2.20 12.74L2.20 12.74L2.20 12.74Q2.24 12.91 2.34 13.13L2.34 13.13L2.34 13.13Q2.45 13.34 2.69 13.40L2.69 13.40L2.69 13.40Q2.92 13.47 3.29 13.51L3.29 13.51L3.29 13.51Q3.67 13.56 4.30 13.56L4.30 13.56L4.30 13.56Q4.82 13.56 5.15 13.54L5.15 13.54L5.15 13.54Q5.49 13.51 5.74 13.42L5.74 13.42L5.74 13.42Q6.00 13.34 6.13 13.23L6.13 13.23L6.13 13.23Q6.25 13.12 6.33 12.89L6.33 12.89L6.33 12.89Q6.41 12.66 6.43 12.41L6.43 12.41L6.43 12.41Q6.45 12.17 6.45 11.76L6.45 11.76L6.45 11.76Q6.44 10.86 6.35 10.51L6.35 10.51L6.35 10.51Q6.25 10.17 5.95 10.10L5.95 10.10L2.55 9.51L2.55 9.51Q1.66 9.36 1.31 8.83L1.31 8.83L1.31 8.83Q0.96 8.31 0.94 7.13L0.94 7.13L0.94 7.13Q0.94 6.50 1.01 6.05L1.01 6.05L1.01 6.05Q1.07 5.61 1.23 5.27L1.23 5.27L1.23 5.27Q1.39 4.93 1.63 4.72L1.63 4.72L1.63 4.72Q1.87 4.52 2.25 4.39L2.25 4.39L2.25 4.39Q2.64 4.27 3.10 4.22L3.10 4.22L3.10 4.22Q3.56 4.18 4.23 4.18L4.23 4.18L4.23 4.18Q4.78 4.18 5.17 4.20L5.17 4.20L5.17 4.20Q5.56 4.22 5.94 4.29L5.94 4.29L5.94 4.29Q6.31 4.35 6.56 4.46L6.56 4.46L6.56 4.46Q6.80 4.57 7.01 4.74L7.01 4.74L7.01 4.74Q7.22 4.92 7.33 5.16L7.33 5.16L7.33 5.16Q7.45 5.41 7.51 5.75L7.51 5.75L7.51 5.75Q7.57 6.08 7.57 6.52L7.57 6.52L6.36 6.80L6.36 6.80Q6.29 6.05 6.27 5.95L6.27 5.95L6.27 5.95Q6.19 5.60 5.88 5.48L5.88 5.48L5.88 5.48Q5.54 5.33 4.45 5.33L4.45 5.33L4.45 5.33Q3.86 5.33 3.47 5.37L3.47 5.37L3.47 5.37Q3.08 5.40 2.84 5.47L2.84 5.47L2.84 5.47Q2.59 5.53 2.47 5.66L2.47 5.66L2.47 5.66Q2.35 5.79 2.31 5.94L2.31 5.94L2.31 5.94Q2.27 6.08 2.27 6.32L2.27 6.32L2.27 7.51L2.27 7.51Q2.27 8.15 2.83 8.24L2.83 8.24L5.28 8.66L5.28 8.66Q5.62 8.72 5.82 8.76L5.82 8.76L5.82 8.76Q6.03 8.80 6.30 8.87L6.30 8.87L6.30 8.87Q6.56 8.93 6.71 9.01L6.71 9.01L6.71 9.01Q6.86 9.08 7.05 9.20L7.05 9.20L7.05 9.20Q7.23 9.32 7.33 9.46L7.33 9.46L7.33 9.46Q7.44 9.60 7.54 9.80L7.54 9.80L7.54 9.80Q7.65 10.00 7.70 10.25L7.70 10.25L7.70 10.25Q7.75 10.50 7.79 10.82L7.79 10.82L7.79 10.82Q7.82 11.14 7.82 11.53ZM15.31 9.18L15.31 9.18L14.20 9.37L14.05 8.42L14.05 8.42Q14 8.09 13.92 8.00L13.92 8.00L13.92 8.00Q13.75 7.79 12.94 7.77L12.94 7.77L12.94 7.77Q12.75 7.76 12.52 7.76L12.52 7.76L12.52 7.76Q11.59 7.76 11.30 7.86L11.30 7.86L11.30 7.86Q10.99 7.92 10.84 8.48L10.84 8.48L10.84 8.48Q10.70 9.05 10.70 9.87L10.70 9.87L10.71 11.05L10.71 11.05Q10.71 11.30 10.71 11.73L10.71 11.73L10.71 11.73Q10.71 12.29 10.71 12.52L10.71 12.52L10.71 12.52Q10.71 12.75 10.77 13.04L10.77 13.04L10.77 13.04Q10.83 13.33 10.91 13.40L10.91 13.40L10.91 13.40Q10.99 13.47 11.20 13.57L11.20 13.57L11.20 13.57Q11.42 13.67 11.67 13.67L11.67 13.67L11.67 13.67Q11.92 13.68 12.39 13.68L12.39 13.68L12.39 13.68Q12.76 13.68 13.03 13.65L13.03 13.65L13.03 13.65Q13.30 13.62 13.49 13.59L13.49 13.59L13.49 13.59Q13.68 13.55 13.80 13.46L13.80 13.46L13.80 13.46Q13.92 13.36 13.98 13.29L13.98 13.29L13.98 13.29Q14.05 13.21 14.08 13.05L14.08 13.05L14.08 13.05Q14.12 12.89 14.13 12.78L14.13 12.78L14.13 12.78Q14.14 12.66 14.15 12.42L14.15 12.42L14.15 12.42Q14.16 12.19 14.18 12.02L14.18 12.02L15.31 12.22L15.31 12.22Q15.26 12.75 15.21 13.07L15.21 13.07L15.21 13.07Q15.16 13.39 15.04 13.69L15.04 13.69L15.04 13.69Q14.92 13.99 14.74 14.15L14.74 14.15L14.74 14.15Q14.56 14.30 14.24 14.42L14.24 14.42L14.24 14.42Q13.92 14.55 13.50 14.58L13.50 14.58L13.50 14.58Q13.08 14.62 12.46 14.62L12.46 14.62L12.46 14.62Q12.00 14.62 11.65 14.59L11.65 14.59L11.65 14.59Q11.29 14.57 10.99 14.48L10.99 14.48L10.99 14.48Q10.70 14.40 10.48 14.32L10.48 14.32L10.48 14.32Q10.26 14.24 10.09 14.04L10.09 14.04L10.09 14.04Q9.93 13.84 9.81 13.70L9.81 13.70L9.81 13.70Q9.70 13.56 9.63 13.23L9.63 13.23L9.63 13.23Q9.55 12.91 9.51 12.69L9.51 12.69L9.51 12.69Q9.47 12.46 9.45 12.00L9.45 12.00L9.45 12.00Q9.43 11.54 9.42 11.22L9.42 11.22L9.42 11.22Q9.42 10.90 9.42 10.29L9.42 10.29L9.42 10.29Q9.42 9.74 9.44 9.34L9.44 9.34L9.44 9.34Q9.46 8.94 9.52 8.58L9.52 8.58L9.52 8.58Q9.58 8.21 9.68 7.97L9.68 7.97L9.68 7.97Q9.78 7.72 9.95 7.51L9.95 7.51L9.95 7.51Q10.12 7.30 10.33 7.18L10.33 7.18L10.33 7.18Q10.55 7.05 10.87 6.97L10.87 6.97L10.87 6.97Q11.18 6.88 11.56 6.84L11.56 6.84L11.56 6.84Q11.94 6.81 12.45 6.81L12.45 6.81L12.45 6.81Q13.10 6.81 13.54 6.87L13.54 6.87L13.54 6.87Q13.98 6.94 14.32 7.09L14.32 7.09L14.32 7.09Q14.66 7.24 14.86 7.52L14.86 7.52L14.86 7.52Q15.06 7.79 15.17 8.19L15.17 8.19L15.17 8.19Q15.28 8.59 15.31 9.18ZM20.44 6.85L20.44 6.85L20.38 7.99L20.38 7.99Q20.13 7.96 19.89 7.96L19.89 7.96L19.89 7.96Q19.41 7.96 19.11 8.05L19.11 8.05L19.11 8.05Q18.81 8.15 18.65 8.38L18.65 8.38L18.65 8.38Q18.50 8.61 18.45 8.91L18.45 8.91L18.45 8.91Q18.40 9.21 18.40 9.71L18.40 9.71L18.40 9.71Q18.40 9.99 18.42 10.53L18.42 10.53L18.42 10.53Q18.44 11.07 18.44 11.30L18.44 11.30L18.44 14.52L17.10 14.52L17.10 7.02L18.32 7.02L18.46 7.86L18.46 7.86Q18.67 7.37 19.10 7.10L19.10 7.10L19.10 7.10Q19.53 6.83 20.13 6.83L20.13 6.83L20.13 6.83Q20.28 6.83 20.44 6.85ZM27.75 10.66L27.75 10.66L27.75 10.66Q26.93 10.75 26.74 10.76L26.74 10.76L23.01 10.76L23.01 10.76Q23.02 11.75 23.06 12.93L23.06 12.93L23.06 12.93Q23.10 13.39 23.46 13.54L23.46 13.54L23.46 13.54Q23.82 13.69 24.86 13.69L24.86 13.69L24.86 13.69Q25.25 13.69 25.53 13.65L25.53 13.65L25.53 13.65Q25.81 13.62 25.98 13.55L25.98 13.55L25.98 13.55Q26.15 13.47 26.25 13.40L26.25 13.40L26.25 13.40Q26.35 13.32 26.40 13.17L26.40 13.17L26.40 13.17Q26.45 13.02 26.46 12.91L26.46 12.91L26.46 12.91Q26.48 12.80 26.49 12.59L26.49 12.59L26.49 12.59Q26.50 12.37 26.52 12.24L26.52 12.24L27.57 12.43L27.57 12.43Q27.56 12.91 27.50 13.24L27.50 13.24L27.50 13.24Q27.45 13.57 27.32 13.82L27.32 13.82L27.32 13.82Q27.19 14.08 27.01 14.22L27.01 14.22L27.01 14.22Q26.83 14.37 26.53 14.46L26.53 14.46L26.53 14.46Q26.23 14.56 25.87 14.59L25.87 14.59L25.87 14.59Q25.50 14.62 24.97 14.62L24.97 14.62L24.97 14.62Q24.29 14.62 23.78 14.54L23.78 14.54L23.78 14.54Q23.28 14.46 22.92 14.35L22.92 14.35L22.92 14.35Q22.56 14.23 22.33 13.97L22.33 13.97L22.33 13.97Q22.09 13.71 21.96 13.47L21.96 13.47L21.96 13.47Q21.83 13.23 21.77 12.76L21.77 12.76L21.77 12.76Q21.70 12.30 21.69 11.92L21.69 11.92L21.69 11.92Q21.67 11.54 21.67 10.87L21.67 10.87L21.67 10.87Q21.67 9.93 21.69 9.40L21.69 9.40L21.69 9.40Q21.72 8.87 21.83 8.34L21.83 8.34L21.83 8.34Q21.94 7.81 22.12 7.57L22.12 7.57L22.12 7.57Q22.31 7.33 22.67 7.13L22.67 7.13L22.67 7.13Q23.03 6.92 23.52 6.87L23.52 6.87L23.52 6.87Q24.01 6.81 24.77 6.81L24.77 6.81L24.77 6.81Q25.30 6.81 25.68 6.84L25.68 6.84L25.68 6.84Q26.07 6.87 26.39 6.97L26.39 6.97L26.39 6.97Q26.71 7.06 26.92 7.18L26.92 7.18L26.92 7.18Q27.13 7.31 27.29 7.55L27.29 7.55L27.29 7.55Q27.45 7.79 27.53 8.04L27.53 8.04L27.53 8.04Q27.62 8.30 27.67 8.72L27.67 8.72L27.67 8.72Q27.73 9.15 27.74 9.58L27.74 9.58L27.74 9.58Q27.75 10.01 27.75 10.66ZM23.02 10.04L23.02 10.04L26.41 10.04L26.41 10.04Q26.39 9.17 26.34 8.44L26.34 8.44L26.34 8.44Q26.31 8.03 25.98 7.89L25.98 7.89L25.98 7.89Q25.65 7.75 24.77 7.75L24.77 7.75L24.77 7.75Q23.79 7.75 23.53 7.85L23.53 7.85L23.53 7.85Q23.41 7.89 23.33 7.97L23.33 7.97L23.33 7.97Q23.24 8.06 23.19 8.22L23.19 8.22L23.19 8.22Q23.13 8.37 23.10 8.51L23.10 8.51L23.10 8.51Q23.07 8.65 23.05 8.89L23.05 8.89L23.05 8.89Q23.04 9.13 23.03 9.27L23.03 9.27L23.03 9.27Q23.02 9.40 23.02 9.67L23.02 9.67L23.02 9.67Q23.02 9.95 23.02 10.04ZM35.46 10.66L35.46 10.66L35.46 10.66Q34.64 10.75 34.44 10.76L34.44 10.76L30.71 10.76L30.71 10.76Q30.72 11.75 30.77 12.93L30.77 12.93L30.77 12.93Q30.80 13.39 31.16 13.54L31.16 13.54L31.16 13.54Q31.52 13.69 32.56 13.69L32.56 13.69L32.56 13.69Q32.95 13.69 33.23 13.65L33.23 13.65L33.23 13.65Q33.51 13.62 33.68 13.55L33.68 13.55L33.68 13.55Q33.86 13.47 33.96 13.40L33.96 13.40L33.96 13.40Q34.06 13.32 34.10 13.17L34.10 13.17L34.10 13.17Q34.15 13.02 34.17 12.91L34.17 12.91L34.17 12.91Q34.18 12.80 34.19 12.59L34.19 12.59L34.19 12.59Q34.21 12.37 34.23 12.24L34.23 12.24L35.27 12.43L35.27 12.43Q35.26 12.91 35.21 13.24L35.21 13.24L35.21 13.24Q35.15 13.57 35.02 13.82L35.02 13.82L35.02 13.82Q34.89 14.08 34.71 14.22L34.71 14.22L34.71 14.22Q34.54 14.37 34.23 14.46L34.23 14.46L34.23 14.46Q33.93 14.56 33.57 14.59L33.57 14.59L33.57 14.59Q33.21 14.62 32.68 14.62L32.68 14.62L32.68 14.62Q31.99 14.62 31.49 14.54L31.49 14.54L31.49 14.54Q30.98 14.46 30.62 14.35L30.62 14.35L30.62 14.35Q30.26 14.23 30.03 13.97L30.03 13.97L30.03 13.97Q29.80 13.71 29.66 13.47L29.66 13.47L29.66 13.47Q29.53 13.23 29.47 12.76L29.47 12.76L29.47 12.76Q29.41 12.30 29.39 11.92L29.39 11.92L29.39 11.92Q29.37 11.54 29.37 10.87L29.37 10.87L29.37 10.87Q29.37 9.93 29.40 9.40L29.40 9.40L29.40 9.40Q29.42 8.87 29.53 8.34L29.53 8.34L29.53 8.34Q29.64 7.81 29.83 7.57L29.83 7.57L29.83 7.57Q30.01 7.33 30.37 7.13L30.37 7.13L30.37 7.13Q30.73 6.92 31.23 6.87L31.23 6.87L31.23 6.87Q31.72 6.81 32.48 6.81L32.48 6.81L32.48 6.81Q33.00 6.81 33.39 6.84L33.39 6.84L33.39 6.84Q33.77 6.87 34.09 6.97L34.09 6.97L34.09 6.97Q34.41 7.06 34.62 7.18L34.62 7.18L34.62 7.18Q34.83 7.31 34.99 7.55L34.99 7.55L34.99 7.55Q35.15 7.79 35.24 8.04L35.24 8.04L35.24 8.04Q35.32 8.30 35.38 8.72L35.38 8.72L35.38 8.72Q35.43 9.15 35.44 9.58L35.44 9.58L35.44 9.58Q35.46 10.01 35.46 10.66ZM30.72 10.04L30.72 10.04L34.11 10.04L34.11 10.04Q34.10 9.17 34.04 8.44L34.04 8.44L34.04 8.44Q34.02 8.03 33.68 7.89L33.68 7.89L33.68 7.89Q33.35 7.75 32.47 7.75L32.47 7.75L32.47 7.75Q31.49 7.75 31.23 7.85L31.23 7.85L31.23 7.85Q31.12 7.89 31.03 7.97L31.03 7.97L31.03 7.97Q30.95 8.06 30.89 8.22L30.89 8.22L30.89 8.22Q30.84 8.37 30.81 8.51L30.81 8.51L30.81 8.51Q30.78 8.65 30.76 8.89L30.76 8.89L30.76 8.89Q30.74 9.13 30.73 9.27L30.73 9.27L30.73 9.27Q30.73 9.40 30.72 9.67L30.72 9.67L30.72 9.67Q30.72 9.95 30.72 10.04ZM43.21 10.36L43.21 14.52L41.86 14.52L41.86 9.98L41.86 9.98Q41.86 9.54 41.86 9.28L41.86 9.28L41.86 9.28Q41.86 9.02 41.83 8.75L41.83 8.75L41.83 8.75Q41.81 8.48 41.78 8.35L41.78 8.35L41.78 8.35Q41.75 8.22 41.68 8.08L41.68 8.08L41.68 8.08Q41.61 7.95 41.54 7.90L41.54 7.90L41.54 7.90Q41.46 7.85 41.32 7.81L41.32 7.81L41.32 7.81Q41.17 7.77 41.03 7.76L41.03 7.76L41.03 7.76Q40.89 7.75 40.65 7.75L40.65 7.75L40.65 7.75Q40.13 7.75 39.76 7.81L39.76 7.81L39.76 7.81Q39.40 7.87 39.16 7.97L39.16 7.97L39.16 7.97Q38.93 8.07 38.80 8.26L38.80 8.26L38.80 8.26Q38.68 8.44 38.63 8.66L38.63 8.66L38.63 8.66Q38.58 8.87 38.58 9.19L38.58 9.19L38.58 9.19Q38.58 9.37 38.60 9.81L38.60 9.81L38.60 9.81Q38.62 10.25 38.62 10.52L38.62 10.52L38.62 14.52L37.28 14.52L37.28 7.02L38.51 7.02L38.64 7.86L38.64 7.86Q38.81 7.30 39.42 7.05L39.42 7.05L39.42 7.05Q40.03 6.81 40.87 6.81L40.87 6.81L40.87 6.81Q41.27 6.81 41.58 6.86L41.58 6.86L41.58 6.86Q41.88 6.90 42.12 7.02L42.12 7.02L42.12 7.02Q42.36 7.13 42.54 7.27L42.54 7.27L42.54 7.27Q42.71 7.42 42.83 7.65L42.83 7.65L42.83 7.65Q42.95 7.89 43.03 8.13L43.03 8.13L43.03 8.13Q43.10 8.38 43.14 8.75L43.14 8.75L43.14 8.75Q43.18 9.12 43.20 9.48L43.20 9.48L43.20 9.48Q43.21 9.85 43.21 10.36L43.21 10.36ZM50.71 12.44L50.71 12.44L50.71 12.44Q50.71 13.10 50.57 13.52L50.57 13.52L50.57 13.52Q50.42 13.94 50.09 14.18L50.09 14.18L50.09 14.18Q49.76 14.43 49.28 14.53L49.28 14.53L49.28 14.53Q48.81 14.62 48.08 14.62L48.08 14.62L48.08 14.62Q47.66 14.62 47.40 14.62L47.40 14.62L47.40 14.62Q47.15 14.61 46.81 14.58L46.81 14.58L46.81 14.58Q46.48 14.55 46.28 14.50L46.28 14.50L46.28 14.50Q46.08 14.44 45.85 14.34L45.85 14.34L45.85 14.34Q45.62 14.24 45.49 14.09L45.49 14.09L45.49 14.09Q45.36 13.93 45.25 13.72L45.25 13.72L45.25 13.72Q45.13 13.51 45.08 13.22L45.08 13.22L45.08 13.22Q45.04 12.93 45.04 12.56L45.04 12.56L46.09 12.28L46.09 12.28Q46.16 13.06 46.24 13.27L46.24 13.27L46.24 13.27Q46.36 13.55 46.75 13.62L46.75 13.62L46.75 13.62Q47.04 13.69 47.99 13.69L47.99 13.69L47.99 13.69Q48.56 13.69 48.83 13.63L48.83 13.63L48.83 13.63Q49.11 13.58 49.21 13.44L49.21 13.44L49.21 13.44Q49.48 13.21 49.48 11.90L49.48 11.90L49.48 11.90Q49.48 11.70 49.40 11.56L49.40 11.56L49.40 11.56Q49.31 11.42 49.20 11.35L49.20 11.35L49.20 11.35Q49.08 11.28 48.87 11.23L48.87 11.23L48.87 11.23Q48.67 11.18 48.50 11.16L48.50 11.16L48.50 11.16Q48.33 11.14 48.06 11.12L48.06 11.12L48.06 11.12Q47.78 11.09 47.62 11.07L47.62 11.07L47.62 11.07Q47.12 11.01 46.81 10.96L46.81 10.96L46.81 10.96Q46.49 10.91 46.17 10.81L46.17 10.81L46.17 10.81Q45.85 10.71 45.67 10.55L45.67 10.55L45.67 10.55Q45.49 10.40 45.34 10.17L45.34 10.17L45.34 10.17Q45.19 9.93 45.12 9.59L45.12 9.59L45.12 9.59Q45.06 9.26 45.06 8.79L45.06 8.79L45.06 8.79Q45.06 8.30 45.17 7.96L45.17 7.96L45.17 7.96Q45.27 7.62 45.47 7.39L45.47 7.39L45.47 7.39Q45.66 7.16 46.01 7.04L46.01 7.04L46.01 7.04Q46.35 6.91 46.79 6.86L46.79 6.86L46.79 6.86Q47.22 6.81 47.84 6.81L47.84 6.81L47.84 6.81Q48.23 6.81 48.48 6.82L48.48 6.82L48.48 6.82Q48.73 6.83 49.02 6.87L49.02 6.87L49.02 6.87Q49.32 6.90 49.51 6.97L49.51 6.97L49.51 6.97Q49.69 7.04 49.88 7.16L49.88 7.16L49.88 7.16Q50.07 7.29 50.17 7.47L50.17 7.47L50.17 7.47Q50.27 7.65 50.34 7.91L50.34 7.91L50.34 7.91Q50.40 8.17 50.40 8.50L50.40 8.50L49.49 8.78L49.49 8.78Q49.46 8.52 49.43 8.36L49.43 8.36L49.43 8.36Q49.41 8.21 49.33 8.08L49.33 8.08L49.33 8.08Q49.25 7.95 49.16 7.90L49.16 7.90L49.16 7.90Q49.07 7.84 48.85 7.80L48.85 7.80L48.85 7.80Q48.64 7.76 48.42 7.75L48.42 7.75L48.42 7.75Q48.20 7.75 47.79 7.75L47.79 7.75L47.79 7.75Q46.92 7.75 46.60 7.92L46.60 7.92L46.60 7.92Q46.29 8.09 46.29 8.49L46.29 8.49L46.29 9.19L46.29 9.19Q46.29 9.64 46.56 9.76L46.56 9.76L46.56 9.76Q46.83 9.88 48.01 10.03L48.01 10.03L48.01 10.03Q48.13 10.05 48.19 10.06L48.19 10.06L48.19 10.06Q48.67 10.11 48.94 10.16L48.94 10.16L48.94 10.16Q49.22 10.21 49.53 10.28L49.53 10.28L49.53 10.28Q49.83 10.36 49.99 10.47L49.99 10.47L49.99 10.47Q50.16 10.58 50.32 10.74L50.32 10.74L50.32 10.74Q50.48 10.90 50.55 11.14L50.55 11.14L50.55 11.14Q50.62 11.38 50.66 11.70L50.66 11.70L50.66 11.70Q50.71 12.01 50.71 12.44ZM58.39 10.22L58.39 14.52L57.04 14.52L57.04 9.97L57.04 9.97Q57.04 9.72 57.05 9.34L57.05 9.34L57.05 9.34Q57.06 8.97 57.06 8.85L57.06 8.85L57.06 8.85Q57.06 8.50 57.01 8.32L57.01 8.32L57.01 8.32Q56.96 8.13 56.77 7.99L56.77 7.99L56.77 7.99Q56.59 7.85 56.25 7.80L56.25 7.80L56.25 7.80Q55.92 7.75 55.34 7.75L55.34 7.75L55.34 7.75Q55.06 7.75 54.82 7.78L54.82 7.78L54.82 7.78Q54.58 7.81 54.36 7.89L54.36 7.89L54.36 7.89Q54.14 7.96 54.00 8.09L54.00 8.09L54.00 8.09Q53.87 8.22 53.85 8.39L53.85 8.39L53.85 8.39Q53.76 9.63 53.76 10.61L53.76 10.61L53.76 14.52L52.40 14.52L52.40 4.36L53.76 4.25L53.76 7.59L53.76 7.59Q54.25 6.81 55.79 6.81L55.79 6.81L55.79 6.81Q56.20 6.82 56.52 6.86L56.52 6.86L56.52 6.86Q56.85 6.90 57.10 6.97L57.10 6.97L57.10 6.97Q57.35 7.03 57.54 7.14L57.54 7.14L57.54 7.14Q57.74 7.25 57.87 7.36L57.87 7.36L57.87 7.36Q58.01 7.48 58.11 7.65L58.11 7.65L58.11 7.65Q58.20 7.83 58.26 7.99L58.26 7.99L58.26 7.99Q58.31 8.16 58.34 8.39L58.34 8.39L58.34 8.39Q58.37 8.63 58.38 8.84L58.38 8.84L58.38 8.84Q58.39 9.05 58.39 9.35L58.39 9.35L58.39 9.35Q58.39 9.48 58.39 9.77L58.39 9.77L58.39 9.77Q58.39 10.06 58.39 10.22L58.39 10.22ZM63.43 13.68L63.43 13.68L63.43 13.68Q64.40 13.66 64.78 13.54L64.78 13.54L64.78 13.54Q65.16 13.41 65.16 13.05L65.16 13.05L65.16 13.05Q65.24 12.07 65.24 10.79L65.24 10.79L65.24 10.79Q65.24 10.36 65.20 9.57L65.20 9.57L65.20 9.57Q65.17 8.78 65.17 8.40L65.17 8.40L65.17 8.40Q65.17 8.29 65.13 8.19L65.13 8.19L65.13 8.19Q65.09 8.09 65.01 8.03L65.01 8.03L65.01 8.03Q64.92 7.96 64.84 7.92L64.84 7.92L64.84 7.92Q64.75 7.87 64.60 7.84L64.60 7.84L64.60 7.84Q64.44 7.81 64.34 7.79L64.34 7.79L64.34 7.79Q64.23 7.77 64.04 7.77L64.04 7.77L64.04 7.77Q63.84 7.76 63.73 7.76L63.73 7.76L63.73 7.76Q63.63 7.76 63.42 7.76L63.42 7.76L63.42 7.76Q63.22 7.76 63.11 7.76L63.11 7.76L63.11 7.76Q63.01 7.76 62.81 7.77L62.81 7.77L62.81 7.77Q62.62 7.77 62.51 7.79L62.51 7.79L62.51 7.79Q62.41 7.81 62.25 7.84L62.25 7.84L62.25 7.84Q62.10 7.87 62.01 7.92L62.01 7.92L62.01 7.92Q61.93 7.96 61.84 8.03L61.84 8.03L61.84 8.03Q61.76 8.09 61.72 8.19L61.72 8.19L61.72 8.19Q61.68 8.29 61.68 8.40L61.68 8.40L61.68 8.40Q61.68 8.78 61.65 9.57L61.65 9.57L61.65 9.57Q61.61 10.36 61.61 10.79L61.61 10.79L61.61 10.79Q61.61 12.07 61.69 13.05L61.69 13.05L61.69 13.05Q61.69 13.41 62.09 13.55L62.09 13.55L62.09 13.55Q62.49 13.68 63.43 13.68ZM63.42 14.62L63.42 14.62L63.42 14.62Q62.66 14.62 62.15 14.56L62.15 14.56L62.15 14.56Q61.65 14.50 61.28 14.29L61.28 14.29L61.28 14.29Q60.92 14.08 60.72 13.85L60.72 13.85L60.72 13.85Q60.53 13.61 60.42 13.10L60.42 13.10L60.42 13.10Q60.31 12.59 60.29 12.09L60.29 12.09L60.29 12.09Q60.27 11.59 60.27 10.71L60.27 10.71L60.27 10.71Q60.27 10.04 60.28 9.60L60.28 9.60L60.28 9.60Q60.30 9.15 60.36 8.73L60.36 8.73L60.36 8.73Q60.42 8.30 60.52 8.04L60.52 8.04L60.52 8.04Q60.61 7.77 60.78 7.54L60.78 7.54L60.78 7.54Q60.96 7.30 61.17 7.18L61.17 7.18L61.17 7.18Q61.39 7.05 61.73 6.96L61.73 6.96L61.73 6.96Q62.07 6.87 62.47 6.84L62.47 6.84L62.47 6.84Q62.87 6.81 63.42 6.81L63.42 6.81L63.42 6.81Q63.98 6.81 64.38 6.84L64.38 6.84L64.38 6.84Q64.78 6.87 65.12 6.96L65.12 6.96L65.12 6.96Q65.45 7.05 65.67 7.18L65.67 7.18L65.67 7.18Q65.89 7.30 66.07 7.54L66.07 7.54L66.07 7.54Q66.24 7.77 66.33 8.04L66.33 8.04L66.33 8.04Q66.42 8.30 66.49 8.73L66.49 8.73L66.49 8.73Q66.55 9.15 66.56 9.60L66.56 9.60L66.56 9.60Q66.58 10.04 66.58 10.71L66.58 10.71L66.58 10.71Q66.58 11.59 66.56 12.09L66.56 12.09L66.56 12.09Q66.53 12.59 66.42 13.10L66.42 13.10L66.42 13.10Q66.32 13.61 66.12 13.85L66.12 13.85L66.12 13.85Q65.93 14.09 65.56 14.29L65.56 14.29L65.56 14.29Q65.19 14.50 64.69 14.56L64.69 14.56L64.69 14.56Q64.18 14.62 63.42 14.62ZM71.44 13.57L71.44 13.57L71.42 14.53L71.42 14.53Q70.84 14.62 70.38 14.62L70.38 14.62L70.38 14.62Q69.88 14.62 69.55 14.51L69.55 14.51L69.55 14.51Q69.23 14.40 69.06 14.16L69.06 14.16L69.06 14.16Q68.90 13.92 68.84 13.63L68.84 13.63L68.84 13.63Q68.78 13.34 68.78 12.89L68.78 12.89L68.78 7.79L67.76 7.79L67.76 7.02L68.78 7.02L68.78 4.89L70.12 4.78L70.12 7.02L71.50 7.02L71.50 7.79L70.12 7.79L70.12 12.43L70.12 12.43Q70.12 13.17 70.19 13.39L70.19 13.39L70.19 13.39Q70.26 13.61 70.58 13.61L70.58 13.61L70.58 13.61Q70.90 13.61 71.44 13.57ZM74.20 14.52L72.92 14.52L73.42 4.27L74.93 4.27L77.87 12.29L80.75 4.27L82.26 4.27L82.80 14.52L81.44 14.52L81.09 6.31L78.26 14.52L77.46 14.52L74.50 6.37L74.20 14.52ZM90.13 9.56L90.13 14.52L89.07 14.52L88.85 13.45L88.85 13.45Q88.64 14.15 88.10 14.39L88.10 14.39L88.10 14.39Q87.57 14.62 86.54 14.62L86.54 14.62L86.54 14.62Q85.85 14.62 85.42 14.49L85.42 14.49L85.42 14.49Q84.98 14.36 84.72 14.04L84.72 14.04L84.72 14.04Q84.46 13.73 84.36 13.27L84.36 13.27L84.36 13.27Q84.26 12.82 84.26 12.10L84.26 12.10L84.26 12.10Q84.26 11.78 84.37 11.53L84.37 11.53L84.37 11.53Q84.49 11.27 84.68 11.09L84.68 11.09L84.68 11.09Q84.88 10.92 85.20 10.79L85.20 10.79L85.20 10.79Q85.52 10.66 85.87 10.58L85.87 10.58L85.87 10.58Q86.22 10.51 86.72 10.46L86.72 10.46L86.72 10.46Q87.21 10.42 87.68 10.40L87.68 10.40L87.68 10.40Q88.16 10.39 88.79 10.39L88.79 10.39L88.79 8.36L88.79 8.36Q88.79 8.01 88.46 7.88L88.46 7.88L88.46 7.88Q88.13 7.75 87.29 7.75L87.29 7.75L87.29 7.75Q86.70 7.75 86.41 7.77L86.41 7.77L86.41 7.77Q86.11 7.80 85.96 7.93L85.96 7.93L85.96 7.93Q85.80 8.07 85.78 8.20L85.78 8.20L85.78 8.20Q85.76 8.33 85.75 8.68L85.75 8.68L85.75 8.68Q85.74 8.81 85.74 8.89L85.74 8.89L84.70 8.85L84.70 8.85Q84.68 8.74 84.68 8.52L84.68 8.52L84.68 8.52Q84.68 8.07 84.82 7.75L84.82 7.75L84.82 7.75Q84.95 7.43 85.16 7.25L85.16 7.25L85.16 7.25Q85.37 7.07 85.74 6.97L85.74 6.97L85.74 6.97Q86.11 6.86 86.47 6.84L86.47 6.84L86.47 6.84Q86.84 6.81 87.38 6.81L87.38 6.81L87.38 6.81Q88.20 6.81 88.71 6.94L88.71 6.94L88.71 6.94Q89.22 7.06 89.55 7.39L89.55 7.39L89.55 7.39Q89.88 7.72 90.01 8.23L90.01 8.23L90.01 8.23Q90.13 8.74 90.13 9.56L90.13 9.56ZM88.79 12.37L88.79 12.37L88.79 11.20L88.79 11.20Q87.44 11.20 86.71 11.31L86.71 11.31L86.71 11.31Q85.99 11.41 85.75 11.59L85.75 11.59L85.75 11.59Q85.50 11.77 85.50 12.10L85.50 12.10L85.50 12.10Q85.50 12.11 85.50 12.14L85.50 12.14L85.50 12.14Q85.50 13.18 85.67 13.43L85.67 13.43L85.67 13.43Q85.85 13.69 86.72 13.69L86.72 13.69L86.72 13.69Q87.47 13.69 87.93 13.51L87.93 13.51L87.93 13.51Q88.40 13.33 88.58 13.05L88.58 13.05L88.58 13.05Q88.76 12.78 88.79 12.37ZM95.17 13.57L95.17 13.57L95.14 14.53L95.14 14.53Q94.57 14.62 94.10 14.62L94.10 14.62L94.10 14.62Q93.60 14.62 93.28 14.51L93.28 14.51L93.28 14.51Q92.96 14.40 92.79 14.16L92.79 14.16L92.79 14.16Q92.63 13.92 92.57 13.63L92.57 13.63L92.57 13.63Q92.50 13.34 92.50 12.89L92.50 12.89L92.50 7.79L91.49 7.79L91.49 7.02L92.50 7.02L92.50 4.89L93.84 4.78L93.84 7.02L95.22 7.02L95.22 7.79L93.84 7.79L93.84 12.43L93.84 12.43Q93.84 13.17 93.92 13.39L93.92 13.39L93.92 13.39Q93.99 13.61 94.31 13.61L94.31 13.61L94.31 13.61Q94.62 13.61 95.17 13.57ZM102.61 9.18L102.61 9.18L101.50 9.37L101.36 8.42L101.36 8.42Q101.30 8.09 101.23 8.00L101.23 8.00L101.23 8.00Q101.05 7.79 100.24 7.77L100.24 7.77L100.24 7.77Q100.05 7.76 99.82 7.76L99.82 7.76L99.82 7.76Q98.89 7.76 98.60 7.86L98.60 7.86L98.60 7.86Q98.29 7.92 98.14 8.48L98.14 8.48L98.14 8.48Q98 9.05 98 9.87L98 9.87L98.01 11.05L98.01 11.05Q98.01 11.30 98.01 11.73L98.01 11.73L98.01 11.73Q98.01 12.29 98.01 12.52L98.01 12.52L98.01 12.52Q98.01 12.75 98.07 13.04L98.07 13.04L98.07 13.04Q98.13 13.33 98.21 13.40L98.21 13.40L98.21 13.40Q98.29 13.47 98.51 13.57L98.51 13.57L98.51 13.57Q98.72 13.67 98.97 13.67L98.97 13.67L98.97 13.67Q99.22 13.68 99.70 13.68L99.70 13.68L99.70 13.68Q100.06 13.68 100.33 13.65L100.33 13.65L100.33 13.65Q100.60 13.62 100.79 13.59L100.79 13.59L100.79 13.59Q100.98 13.55 101.10 13.46L101.10 13.46L101.10 13.46Q101.22 13.36 101.28 13.29L101.28 13.29L101.28 13.29Q101.35 13.21 101.38 13.05L101.38 13.05L101.38 13.05Q101.42 12.89 101.43 12.78L101.43 12.78L101.43 12.78Q101.44 12.66 101.45 12.42L101.45 12.42L101.45 12.42Q101.47 12.19 101.49 12.02L101.49 12.02L102.61 12.22L102.61 12.22Q102.57 12.75 102.52 13.07L102.52 13.07L102.52 13.07Q102.46 13.39 102.34 13.69L102.34 13.69L102.34 13.69Q102.22 13.99 102.04 14.15L102.04 14.15L102.04 14.15Q101.86 14.30 101.54 14.42L101.54 14.42L101.54 14.42Q101.23 14.55 100.81 14.58L100.81 14.58L100.81 14.58Q100.39 14.62 99.76 14.62L99.76 14.62L99.76 14.62Q99.31 14.62 98.95 14.59L98.95 14.59L98.95 14.59Q98.59 14.57 98.29 14.48L98.29 14.48L98.29 14.48Q98 14.40 97.78 14.32L97.78 14.32L97.78 14.32Q97.56 14.24 97.40 14.04L97.40 14.04L97.40 14.04Q97.23 13.84 97.11 13.70L97.11 13.70L97.11 13.70Q97.00 13.56 96.93 13.23L96.93 13.23L96.93 13.23Q96.85 12.91 96.81 12.69L96.81 12.69L96.81 12.69Q96.77 12.46 96.75 12.00L96.75 12.00L96.75 12.00Q96.73 11.54 96.73 11.22L96.73 11.22L96.73 11.22Q96.72 10.90 96.72 10.29L96.72 10.29L96.72 10.29Q96.72 9.74 96.74 9.34L96.74 9.34L96.74 9.34Q96.76 8.94 96.82 8.58L96.82 8.58L96.82 8.58Q96.89 8.21 96.98 7.97L96.98 7.97L96.98 7.97Q97.08 7.72 97.25 7.51L97.25 7.51L97.25 7.51Q97.42 7.30 97.63 7.18L97.63 7.18L97.63 7.18Q97.85 7.05 98.17 6.97L98.17 6.97L98.17 6.97Q98.49 6.88 98.86 6.84L98.86 6.84L98.86 6.84Q99.24 6.81 99.75 6.81L99.75 6.81L99.75 6.81Q100.40 6.81 100.84 6.87L100.84 6.87L100.84 6.87Q101.28 6.94 101.62 7.09L101.62 7.09L101.62 7.09Q101.96 7.24 102.16 7.52L102.16 7.52L102.16 7.52Q102.36 7.79 102.47 8.19L102.47 8.19L102.47 8.19Q102.58 8.59 102.61 9.18ZM110.39 10.22L110.39 14.52L109.04 14.52L109.04 9.97L109.04 9.97Q109.04 9.72 109.05 9.34L109.05 9.34L109.05 9.34Q109.06 8.97 109.06 8.85L109.06 8.85L109.06 8.85Q109.06 8.50 109.01 8.32L109.01 8.32L109.01 8.32Q108.96 8.13 108.77 7.99L108.77 7.99L108.77 7.99Q108.59 7.85 108.25 7.80L108.25 7.80L108.25 7.80Q107.92 7.75 107.34 7.75L107.34 7.75L107.34 7.75Q107.06 7.75 106.82 7.78L106.82 7.78L106.82 7.78Q106.58 7.81 106.36 7.89L106.36 7.89L106.36 7.89Q106.14 7.96 106.00 8.09L106.00 8.09L106.00 8.09Q105.87 8.22 105.85 8.39L105.85 8.39L105.85 8.39Q105.76 9.63 105.76 10.61L105.76 10.61L105.76 14.52L104.41 14.52L104.41 4.36L105.76 4.25L105.76 7.59L105.76 7.59Q106.25 6.81 107.80 6.81L107.80 6.81L107.80 6.81Q108.20 6.82 108.52 6.86L108.52 6.86L108.52 6.86Q108.85 6.90 109.10 6.97L109.10 6.97L109.10 6.97Q109.35 7.03 109.55 7.14L109.55 7.14L109.55 7.14Q109.74 7.25 109.87 7.36L109.87 7.36L109.87 7.36Q110.01 7.48 110.11 7.65L110.11 7.65L110.11 7.65Q110.20 7.83 110.26 7.99L110.26 7.99L110.26 7.99Q110.31 8.16 110.34 8.39L110.34 8.39L110.34 8.39Q110.37 8.63 110.38 8.84L110.38 8.84L110.38 8.84Q110.39 9.05 110.39 9.35L110.39 9.35L110.39 9.35Q110.39 9.48 110.39 9.77L110.39 9.77L110.39 9.77Q110.39 10.06 110.39 10.22L110.39 10.22ZM118.35 10.66L118.35 10.66L118.35 10.66Q117.53 10.75 117.33 10.76L117.33 10.76L113.61 10.76L113.61 10.76Q113.61 11.75 113.66 12.93L113.66 12.93L113.66 12.93Q113.70 13.39 114.05 13.54L114.05 13.54L114.05 13.54Q114.41 13.69 115.45 13.69L115.45 13.69L115.45 13.69Q115.84 13.69 116.12 13.65L116.12 13.65L116.12 13.65Q116.40 13.62 116.58 13.55L116.58 13.55L116.58 13.55Q116.75 13.47 116.85 13.40L116.85 13.40L116.85 13.40Q116.95 13.32 117.00 13.17L117.00 13.17L117.00 13.17Q117.04 13.02 117.06 12.91L117.06 12.91L117.06 12.91Q117.07 12.80 117.09 12.59L117.09 12.59L117.09 12.59Q117.10 12.37 117.12 12.24L117.12 12.24L118.17 12.43L118.17 12.43Q118.15 12.91 118.10 13.24L118.10 13.24L118.10 13.24Q118.04 13.57 117.91 13.82L117.91 13.82L117.91 13.82Q117.78 14.08 117.61 14.22L117.61 14.22L117.61 14.22Q117.43 14.37 117.13 14.46L117.13 14.46L117.13 14.46Q116.83 14.56 116.46 14.59L116.46 14.59L116.46 14.59Q116.10 14.62 115.57 14.62L115.57 14.62L115.57 14.62Q114.88 14.62 114.38 14.54L114.38 14.54L114.38 14.54Q113.87 14.46 113.51 14.35L113.51 14.35L113.51 14.35Q113.16 14.23 112.92 13.97L112.92 13.97L112.92 13.97Q112.69 13.71 112.56 13.47L112.56 13.47L112.56 13.47Q112.42 13.23 112.36 12.76L112.36 12.76L112.36 12.76Q112.30 12.30 112.28 11.92L112.28 11.92L112.28 11.92Q112.27 11.54 112.27 10.87L112.27 10.87L112.27 10.87Q112.27 9.93 112.29 9.40L112.29 9.40L112.29 9.40Q112.31 8.87 112.42 8.34L112.42 8.34L112.42 8.34Q112.53 7.81 112.72 7.57L112.72 7.57L112.72 7.57Q112.90 7.33 113.26 7.13L113.26 7.13L113.26 7.13Q113.63 6.92 114.12 6.87L114.12 6.87L114.12 6.87Q114.61 6.81 115.37 6.81L115.37 6.81L115.37 6.81Q115.90 6.81 116.28 6.84L116.28 6.84L116.28 6.84Q116.66 6.87 116.98 6.97L116.98 6.97L116.98 6.97Q117.30 7.06 117.51 7.18L117.51 7.18L117.51 7.18Q117.72 7.31 117.88 7.55L117.88 7.55L117.88 7.55Q118.04 7.79 118.13 8.04L118.13 8.04L118.13 8.04Q118.21 8.30 118.27 8.72L118.27 8.72L118.27 8.72Q118.32 9.15 118.34 9.58L118.34 9.58L118.34 9.58Q118.35 10.01 118.35 10.66ZM113.61 10.04L113.61 10.04L117.00 10.04L117.00 10.04Q116.99 9.17 116.94 8.44L116.94 8.44L116.94 8.44Q116.91 8.03 116.58 7.89L116.58 7.89L116.58 7.89Q116.25 7.75 115.36 7.75L115.36 7.75L115.36 7.75Q114.39 7.75 114.13 7.85L114.13 7.85L114.13 7.85Q114.01 7.89 113.92 7.97L113.92 7.97L113.92 7.97Q113.84 8.06 113.78 8.22L113.78 8.22L113.78 8.22Q113.73 8.37 113.70 8.51L113.70 8.51L113.70 8.51Q113.67 8.65 113.65 8.89L113.65 8.89L113.65 8.89Q113.63 9.13 113.63 9.27L113.63 9.27L113.63 9.27Q113.62 9.40 113.62 9.67L113.62 9.67L113.62 9.67Q113.61 9.95 113.61 10.04ZM123.52 6.85L123.52 6.85L123.46 7.99L123.46 7.99Q123.20 7.96 122.97 7.96L122.97 7.96L122.97 7.96Q122.49 7.96 122.19 8.05L122.19 8.05L122.19 8.05Q121.88 8.15 121.73 8.38L121.73 8.38L121.73 8.38Q121.58 8.61 121.53 8.91L121.53 8.91L121.53 8.91Q121.47 9.21 121.47 9.71L121.47 9.71L121.47 9.71Q121.47 9.99 121.50 10.53L121.50 10.53L121.50 10.53Q121.52 11.07 121.52 11.30L121.52 11.30L121.52 14.52L120.18 14.52L120.18 7.02L121.40 7.02L121.54 7.86L121.54 7.86Q121.75 7.37 122.18 7.10L122.18 7.10L122.18 7.10Q122.61 6.83 123.21 6.83L123.21 6.83L123.21 6.83Q123.36 6.83 123.52 6.85Z"></path></g><!----><g data-v-423bf9ae="" id="14c91c77-9280-4f1d-81d2-53db991eff33" transform="matrix(1.058275637110555,0,0,1.058275637110555,298.58722522455037,-7.435785223871804)" stroke="none" fill="black"><path d="M79.672 92.522H20.328a3.832 3.832 0 0 1-3.827-3.827V11.307a3.833 3.833 0 0 1 3.827-3.829h59.344a3.833 3.833 0 0 1 3.827 3.829v77.389a3.83 3.83 0 0 1-3.827 3.826zM20.328 10.478a.829.829 0 0 0-.827.829v77.389c0 .456.371.827.827.827h59.344a.828.828 0 0 0 .827-.827V11.307a.829.829 0 0 0-.827-.829H20.328z"></path><circle cx="39.417" cy="38.394" r="4.234"></circle><path d="M74 28a2 2 0 0 0-2-2H29a2 2 0 0 0-2 2v31a2 2 0 0 0 2 2h43a2 2 0 0 0 2-2V28zm-2.413 31h-.593l-11.25-16.556c-.618-.786-1.633-.684-2.259.099L46.212 56.736c-.621.788-1.687.852-2.365.114l-4.825-5.235c-.68-.733-1.767-.923-2.421-.164L29.923 59H29V28h42.59l-.003 31z"></path></g><!----><g data-v-423bf9ae="" id="68abdb02-55b4-4899-a161-c7e38608e4df" fill="black" transform="matrix(1.5443120632200316,0,0,1.5443120632200316,87.36416876737803,193.9394332728879)"><path d="M1.26 2.80L1.26 12.60L1.68 12.60L1.68 7.62L7.91 7.62L7.91 12.60L8.33 12.60L8.33 2.80L7.91 2.80L7.91 7.18L1.68 7.18L1.68 2.80ZM17.78 3.15C17.78 3.26 17.82 3.36 17.88 3.43C17.95 3.50 18.05 3.54 18.17 3.54C18.29 3.54 18.39 3.50 18.46 3.43C18.53 3.36 18.56 3.26 18.56 3.15C18.56 3.04 18.53 2.94 18.46 2.87C18.39 2.80 18.29 2.76 18.17 2.76C18.05 2.76 17.95 2.80 17.88 2.87C17.82 2.94 17.78 3.04 17.78 3.15ZM17.96 6.16L17.96 12.60L18.38 12.60L18.38 6.16ZM27.82 9.38C27.82 8.48 28.09 7.77 28.62 7.25C29.16 6.73 29.77 6.47 30.46 6.47C31.23 6.47 31.86 6.75 32.37 7.31C32.87 7.87 33.12 8.56 33.12 9.38C33.12 10.20 32.87 10.89 32.37 11.45C31.86 12.01 31.23 12.29 30.46 12.29C29.77 12.29 29.16 12.03 28.62 11.51C28.09 10.99 27.82 10.28 27.82 9.38ZM27.58 13.02C27.58 13.86 27.84 14.54 28.35 15.05C28.86 15.56 29.55 15.82 30.42 15.82C31.34 15.82 32.09 15.53 32.67 14.95C33.25 14.36 33.54 13.53 33.54 12.46L33.54 6.16L33.12 6.16L33.12 8.04C32.92 7.44 32.59 6.96 32.12 6.59C31.66 6.23 31.12 6.05 30.51 6.05C29.61 6.05 28.87 6.35 28.27 6.96C27.68 7.56 27.38 8.37 27.38 9.38C27.38 10.39 27.68 11.20 28.27 11.80C28.87 12.41 29.61 12.71 30.51 12.71C31.12 12.71 31.66 12.53 32.12 12.17C32.59 11.80 32.92 11.32 33.12 10.72L33.12 12.46C33.12 13.40 32.87 14.13 32.35 14.64C31.84 15.15 31.20 15.40 30.42 15.40C29.68 15.40 29.10 15.18 28.66 14.74C28.22 14.30 28 13.73 28 13.02ZM43.27 8.68C43.27 8.12 43.48 7.61 43.88 7.15C44.29 6.70 44.80 6.47 45.40 6.47C46.46 6.47 46.98 7.16 46.98 8.54L46.98 12.60L47.40 12.60L47.40 8.40C47.40 7.68 47.25 7.11 46.93 6.68C46.61 6.26 46.15 6.05 45.54 6.05C44.95 6.05 44.47 6.19 44.09 6.46C43.70 6.74 43.43 7.12 43.27 7.62L43.27 1.68L42.85 1.68L42.85 12.60L43.27 12.60ZM67.49 7.70C67.49 9.16 67.94 10.36 68.83 11.30C69.72 12.24 70.85 12.71 72.21 12.71C73.44 12.71 74.50 12.31 75.38 11.51L76.54 12.60L77.10 12.60L75.64 11.24C76.50 10.29 76.93 9.11 76.93 7.70C76.93 6.24 76.48 5.04 75.59 4.10C74.70 3.16 73.57 2.69 72.21 2.69C70.85 2.69 69.72 3.16 68.83 4.10C67.94 5.04 67.49 6.24 67.49 7.70ZM72.06 8.40L75.07 11.21C74.28 11.94 73.33 12.31 72.21 12.31C70.97 12.31 69.94 11.87 69.13 10.99C68.32 10.11 67.91 9.02 67.91 7.70C67.91 6.38 68.32 5.29 69.13 4.41C69.94 3.53 70.97 3.09 72.21 3.09C73.45 3.09 74.48 3.53 75.29 4.41C76.10 5.29 76.51 6.38 76.51 7.70C76.51 8.99 76.12 10.07 75.33 10.95L72.62 8.40ZM89.91 10.08C89.91 10.64 89.71 11.15 89.30 11.61C88.89 12.06 88.39 12.29 87.78 12.29C86.73 12.29 86.20 11.60 86.20 10.22L86.20 6.16L85.78 6.16L85.78 10.36C85.78 11.08 85.94 11.65 86.25 12.07C86.57 12.50 87.03 12.71 87.64 12.71C88.23 12.71 88.71 12.57 89.10 12.30C89.48 12.02 89.75 11.64 89.91 11.14L89.91 12.60L90.33 12.60L90.33 6.16L89.91 6.16ZM99.54 7.32C99.91 7.03 100.26 6.81 100.58 6.66C100.91 6.51 101.30 6.44 101.78 6.44C102.92 6.44 103.49 6.95 103.49 7.98L103.49 9.13C102.99 8.82 102.37 8.67 101.61 8.67C100.92 8.67 100.33 8.85 99.83 9.21C99.33 9.56 99.08 10.07 99.08 10.71C99.08 11.39 99.29 11.90 99.71 12.24C100.13 12.57 100.63 12.74 101.22 12.74C101.82 12.74 102.31 12.61 102.71 12.35C103.11 12.09 103.37 11.74 103.49 11.31L103.49 12.60L103.91 12.60L103.91 7.98C103.91 7.34 103.74 6.85 103.40 6.52C103.07 6.19 102.53 6.02 101.78 6.02C101.42 6.02 101.07 6.07 100.74 6.18C100.41 6.29 100.15 6.40 99.98 6.50C99.81 6.61 99.59 6.76 99.32 6.96ZM99.51 10.71C99.51 10.20 99.71 9.79 100.11 9.50C100.50 9.21 101.01 9.06 101.61 9.06C102.28 9.06 102.91 9.23 103.49 9.56L103.49 10.36C103.49 10.94 103.27 11.41 102.83 11.79C102.39 12.16 101.88 12.35 101.29 12.35C100.73 12.35 100.29 12.21 99.98 11.93C99.67 11.65 99.51 11.24 99.51 10.71ZM113.08 1.68L113.08 12.60L113.50 12.60L113.50 1.68ZM122.88 3.15C122.88 3.26 122.91 3.36 122.98 3.43C123.05 3.50 123.15 3.54 123.27 3.54C123.39 3.54 123.49 3.50 123.56 3.43C123.63 3.36 123.66 3.26 123.66 3.15C123.66 3.04 123.63 2.94 123.56 2.87C123.49 2.80 123.39 2.76 123.27 2.76C123.15 2.76 123.05 2.80 122.98 2.87C122.91 2.94 122.88 3.04 122.88 3.15ZM123.06 6.16L123.06 12.60L123.48 12.60L123.48 6.16ZM133.11 3.92L133.11 6.16L132.06 6.16L132.06 6.58L133.11 6.58L133.11 12.60L133.53 12.60L133.53 6.58L134.58 6.58L134.58 6.16L133.53 6.16L133.53 3.92ZM142.21 6.16L144.94 12.32L143.54 15.68L144.03 15.68L148.09 6.16L147.60 6.16L145.19 11.87L142.69 6.16ZM167.69 2.80L167.69 12.60L170.07 12.60C171.49 12.60 172.63 12.15 173.48 11.25C174.33 10.35 174.76 9.17 174.76 7.70C174.76 6.23 174.33 5.05 173.48 4.15C172.63 3.25 171.49 2.80 170.07 2.80ZM168.11 3.22L170.07 3.22C171.37 3.22 172.40 3.63 173.17 4.46C173.93 5.28 174.31 6.37 174.31 7.70C174.31 9.09 173.94 10.18 173.18 10.98C172.42 11.78 171.39 12.18 170.07 12.18L168.11 12.18ZM183.65 3.15C183.65 3.26 183.69 3.36 183.76 3.43C183.83 3.50 183.92 3.54 184.04 3.54C184.17 3.54 184.26 3.50 184.33 3.43C184.40 3.36 184.44 3.26 184.44 3.15C184.44 3.04 184.40 2.94 184.33 2.87C184.26 2.80 184.17 2.76 184.04 2.76C183.92 2.76 183.83 2.80 183.76 2.87C183.69 2.94 183.65 3.04 183.65 3.15ZM183.83 6.16L183.83 12.60L184.25 12.60L184.25 6.16ZM193.61 10.50L193.19 10.58C193.30 11.16 193.55 11.66 193.95 12.08C194.35 12.50 194.85 12.71 195.47 12.71C196.04 12.71 196.50 12.56 196.87 12.24C197.23 11.93 197.41 11.50 197.41 10.96C197.41 9.99 196.83 9.34 195.65 9.00C195.14 8.85 194.74 8.68 194.46 8.47C194.18 8.26 194.04 7.98 194.04 7.63C194.04 7.28 194.17 7.00 194.42 6.79C194.68 6.58 195.03 6.48 195.47 6.48C196.18 6.48 196.70 6.86 197.02 7.63L197.40 7.45C197.07 6.51 196.42 6.05 195.45 6.05C194.92 6.05 194.47 6.19 194.11 6.47C193.75 6.75 193.56 7.14 193.56 7.64C193.56 7.90 193.61 8.12 193.70 8.31C193.80 8.50 193.94 8.66 194.14 8.80C194.35 8.93 194.54 9.04 194.72 9.12C194.90 9.20 195.15 9.29 195.45 9.39C195.97 9.57 196.35 9.78 196.59 10.01C196.83 10.24 196.95 10.57 196.95 11.00C196.95 11.38 196.82 11.68 196.56 11.92C196.30 12.16 195.93 12.28 195.45 12.28C194.93 12.28 194.51 12.09 194.19 11.71C193.86 11.33 193.67 10.93 193.61 10.50ZM212.25 9.38C212.25 8.37 211.96 7.56 211.36 6.96C210.77 6.35 210.03 6.05 209.13 6.05C208.52 6.05 207.98 6.23 207.51 6.59C207.05 6.96 206.72 7.44 206.51 8.04L206.51 6.16L206.09 6.16L206.09 15.68L206.51 15.68L206.51 10.72C206.72 11.32 207.05 11.80 207.51 12.17C207.98 12.53 208.52 12.71 209.13 12.71C210.03 12.71 210.77 12.41 211.36 11.80C211.96 11.20 212.25 10.39 212.25 9.38ZM211.82 9.38C211.82 10.28 211.55 10.99 211.01 11.51C210.48 12.03 209.86 12.29 209.17 12.29C208.41 12.29 207.77 12.01 207.27 11.45C206.77 10.89 206.51 10.20 206.51 9.38C206.51 8.56 206.77 7.87 207.27 7.31C207.77 6.75 208.41 6.47 209.17 6.47C209.86 6.47 210.48 6.73 211.01 7.25C211.55 7.77 211.82 8.48 211.82 9.38ZM221.07 1.68L221.07 12.60L221.49 12.60L221.49 1.68ZM230.71 7.32C231.08 7.03 231.43 6.81 231.75 6.66C232.07 6.51 232.47 6.44 232.95 6.44C234.08 6.44 234.65 6.95 234.65 7.98L234.65 9.13C234.16 8.82 233.53 8.67 232.78 8.67C232.09 8.67 231.49 8.85 230.99 9.21C230.49 9.56 230.24 10.07 230.24 10.71C230.24 11.39 230.45 11.90 230.87 12.24C231.29 12.57 231.80 12.74 232.39 12.74C232.98 12.74 233.48 12.61 233.88 12.35C234.27 12.09 234.53 11.74 234.65 11.31L234.65 12.60L235.07 12.60L235.07 7.98C235.07 7.34 234.91 6.85 234.57 6.52C234.23 6.19 233.69 6.02 232.95 6.02C232.58 6.02 232.23 6.07 231.90 6.18C231.57 6.29 231.32 6.40 231.15 6.50C230.97 6.61 230.75 6.76 230.48 6.96ZM230.68 10.71C230.68 10.20 230.88 9.79 231.27 9.50C231.67 9.21 232.17 9.06 232.78 9.06C233.45 9.06 234.08 9.23 234.65 9.56L234.65 10.36C234.65 10.94 234.43 11.41 234.00 11.79C233.56 12.16 233.04 12.35 232.46 12.35C231.90 12.35 231.46 12.21 231.15 11.93C230.83 11.65 230.68 11.24 230.68 10.71ZM243.19 6.16L245.92 12.32L244.52 15.68L245.01 15.68L249.07 6.16L248.58 6.16L246.18 11.87L243.67 6.16ZM268.60 2.80L268.60 12.60L269.02 12.60L269.02 2.80ZM278.82 8.68C278.82 8.13 279.02 7.62 279.41 7.16C279.80 6.70 280.27 6.47 280.81 6.47C281.29 6.47 281.65 6.65 281.89 7.01C282.13 7.38 282.25 7.89 282.25 8.54L282.25 12.60L282.67 12.60L282.67 8.68C282.67 8.13 282.87 7.62 283.26 7.16C283.65 6.70 284.12 6.47 284.66 6.47C285.14 6.47 285.50 6.65 285.74 7.01C285.98 7.38 286.10 7.89 286.10 8.54L286.10 12.60L286.52 12.60L286.52 8.40C286.52 7.69 286.37 7.12 286.07 6.69C285.77 6.26 285.34 6.05 284.80 6.05C284.26 6.05 283.80 6.19 283.42 6.47C283.03 6.76 282.76 7.15 282.60 7.64C282.50 7.15 282.31 6.76 282.03 6.47C281.75 6.19 281.39 6.05 280.95 6.05C280.42 6.05 279.97 6.19 279.60 6.47C279.23 6.75 278.97 7.13 278.82 7.62L278.82 6.16L278.40 6.16L278.40 12.60L278.82 12.60ZM295.74 7.32C296.11 7.03 296.46 6.81 296.78 6.66C297.10 6.51 297.50 6.44 297.98 6.44C299.11 6.44 299.68 6.95 299.68 7.98L299.68 9.13C299.19 8.82 298.56 8.67 297.81 8.67C297.12 8.67 296.52 8.85 296.02 9.21C295.52 9.56 295.27 10.07 295.27 10.71C295.27 11.39 295.48 11.90 295.90 12.24C296.32 12.57 296.83 12.74 297.42 12.74C298.01 12.74 298.51 12.61 298.91 12.35C299.30 12.09 299.56 11.74 299.68 11.31L299.68 12.60L300.10 12.60L300.10 7.98C300.10 7.34 299.94 6.85 299.60 6.52C299.26 6.19 298.72 6.02 297.98 6.02C297.61 6.02 297.26 6.07 296.93 6.18C296.60 6.29 296.35 6.40 296.18 6.50C296.00 6.61 295.78 6.76 295.51 6.96ZM295.71 10.71C295.71 10.20 295.91 9.79 296.30 9.50C296.70 9.21 297.20 9.06 297.81 9.06C298.48 9.06 299.11 9.23 299.68 9.56L299.68 10.36C299.68 10.94 299.46 11.41 299.03 11.79C298.59 12.16 298.07 12.35 297.49 12.35C296.93 12.35 296.49 12.21 296.18 11.93C295.86 11.65 295.71 11.24 295.71 10.71ZM309.15 9.38C309.15 8.48 309.42 7.77 309.95 7.25C310.49 6.73 311.10 6.47 311.79 6.47C312.56 6.47 313.19 6.75 313.70 7.31C314.20 7.87 314.45 8.56 314.45 9.38C314.45 10.20 314.20 10.89 313.70 11.45C313.19 12.01 312.56 12.29 311.79 12.29C311.10 12.29 310.49 12.03 309.95 11.51C309.42 10.99 309.15 10.28 309.15 9.38ZM308.91 13.02C308.91 13.86 309.17 14.54 309.68 15.05C310.19 15.56 310.88 15.82 311.75 15.82C312.67 15.82 313.42 15.53 314.00 14.95C314.58 14.36 314.87 13.53 314.87 12.46L314.87 6.16L314.45 6.16L314.45 8.04C314.25 7.44 313.92 6.96 313.45 6.59C312.99 6.23 312.45 6.05 311.84 6.05C310.94 6.05 310.20 6.35 309.60 6.96C309.01 7.56 308.71 8.37 308.71 9.38C308.71 10.39 309.01 11.20 309.60 11.80C310.20 12.41 310.94 12.71 311.84 12.71C312.45 12.71 312.99 12.53 313.45 12.17C313.92 11.80 314.25 11.32 314.45 10.72L314.45 12.46C314.45 13.40 314.20 14.13 313.68 14.64C313.17 15.15 312.53 15.40 311.75 15.40C311.01 15.40 310.43 15.18 309.99 14.74C309.55 14.30 309.33 13.73 309.33 13.02ZM328.93 9.06L324.09 9.06C324.10 8.38 324.35 7.77 324.84 7.25C325.32 6.73 325.90 6.47 326.58 6.47C327.26 6.47 327.82 6.72 328.26 7.24C328.70 7.75 328.92 8.36 328.93 9.06ZM324.06 9.48L329.36 9.48C329.37 9.43 329.38 9.38 329.38 9.32C329.38 8.33 329.12 7.53 328.60 6.94C328.08 6.34 327.41 6.05 326.58 6.05C325.73 6.05 325.02 6.36 324.46 6.99C323.90 7.61 323.62 8.41 323.62 9.38C323.62 10.33 323.92 11.13 324.51 11.76C325.09 12.39 325.78 12.71 326.58 12.71C327.81 12.71 328.73 12.13 329.34 10.96L328.97 10.74C328.43 11.76 327.64 12.28 326.61 12.28C325.92 12.28 325.32 12.01 324.83 11.47C324.33 10.92 324.08 10.26 324.06 9.48ZM337.99 10.50L337.57 10.58C337.68 11.16 337.93 11.66 338.33 12.08C338.73 12.50 339.23 12.71 339.85 12.71C340.42 12.71 340.89 12.56 341.25 12.24C341.61 11.93 341.80 11.50 341.80 10.96C341.80 9.99 341.21 9.34 340.03 9.00C339.52 8.85 339.12 8.68 338.84 8.47C338.56 8.26 338.42 7.98 338.42 7.63C338.42 7.28 338.55 7.00 338.81 6.79C339.06 6.58 339.41 6.48 339.85 6.48C340.56 6.48 341.08 6.86 341.40 7.63L341.78 7.45C341.46 6.51 340.81 6.05 339.84 6.05C339.30 6.05 338.86 6.19 338.49 6.47C338.13 6.75 337.95 7.14 337.95 7.64C337.95 7.90 337.99 8.12 338.09 8.31C338.18 8.50 338.33 8.66 338.53 8.80C338.73 8.93 338.92 9.04 339.10 9.12C339.28 9.20 339.53 9.29 339.84 9.39C340.35 9.57 340.73 9.78 340.97 10.01C341.21 10.24 341.33 10.57 341.33 11.00C341.33 11.38 341.20 11.68 340.94 11.92C340.68 12.16 340.31 12.28 339.84 12.28C339.31 12.28 338.89 12.09 338.57 11.71C338.25 11.33 338.05 10.93 337.99 10.50Z"></path></g></svg>