<svg data-v-423bf9ae="" xmlns="http://www.w3.org/2000/svg" viewBox="0 0 47.268234865192866 60" class="icon"><!----><!----><!----><!----><g data-v-423bf9ae="" id="fd8a098a-b9f1-4204-b7d6-4df3606e7363" transform="matrix(0.7055170914070367,0,0,0.7055170914070367,-11.641737443886989,-5.275857402106347)" stroke="none" fill="black"><path d="M79.672 92.522H20.328a3.832 3.832 0 0 1-3.827-3.827V11.307a3.833 3.833 0 0 1 3.827-3.829h59.344a3.833 3.833 0 0 1 3.827 3.829v77.389a3.83 3.83 0 0 1-3.827 3.826zM20.328 10.478a.829.829 0 0 0-.827.829v77.389c0 .456.371.827.827.827h59.344a.828.828 0 0 0 .827-.827V11.307a.829.829 0 0 0-.827-.829H20.328z"></path><circle cx="39.417" cy="38.394" r="4.234"></circle><path d="M74 28a2 2 0 0 0-2-2H29a2 2 0 0 0-2 2v31a2 2 0 0 0 2 2h43a2 2 0 0 0 2-2V28zm-2.413 31h-.593l-11.25-16.556c-.618-.786-1.633-.684-2.259.099L46.212 56.736c-.621.788-1.687.852-2.365.114l-4.825-5.235c-.68-.733-1.767-.923-2.421-.164L29.923 59H29V28h42.59l-.003 31z"></path></g><!----></svg>